<svg id="search" xmlns="http://www.w3.org/2000/svg" width="81.263" height="101.842" viewBox="0 0 81.263 101.842">
  <path id="Path_1" data-name="Path 1" d="M116.868,25.888a30.432,30.432,0,0,1,1.726,41.023q-.815.968-1.726,1.883t-1.875,1.734a30.344,30.344,0,1,1,1.875-44.641Z" transform="translate(-65.288 -17.003)" fill="#34347d"/>
  <ellipse id="Ellipse_1" data-name="Ellipse 1" cx="25.685" cy="25.79" rx="25.685" ry="25.79" transform="translate(4.53 4.549)" fill="#a0eaea"/>
  <path id="Path_2" data-name="Path 2" d="M100.464,45.9a25.53,25.53,0,0,1,14.967-7.354A25.575,25.575,0,0,0,94.073,45.9a25.864,25.864,0,0,0,0,36.472,25.575,25.575,0,0,0,21.358,7.354,25.53,25.53,0,0,1-14.967-7.354,25.864,25.864,0,0,1,0-36.472Z" transform="translate(-82.02 -33.795)" fill="#91cecc"/>
  <path id="Path_3" data-name="Path 3" d="M302.218,251.283l4.576,4.593-3.607,3.622-4.576-4.6-.021-.026q.965-.821,1.875-1.734t1.726-1.883Z" transform="translate(-248.885 -201.351)" fill="#34347d"/>
  <path id="Path_4" data-name="Path 4" d="M315.983,259.29l-9.393,9.434,4.828,4.849,9.393-9.434Z" transform="translate(-255.18 -207.671)" fill="#34347d"/>
  <path id="Path_5" data-name="Path 5" d="M352.33,295.792a6.69,6.69,0,0,1,0,9.434,6.622,6.622,0,0,1-9.393,0L329.25,291.484l9.393-9.434Z" transform="translate(-273.013 -225.581)" fill="#c79a83"/>
  <path id="Path_6" data-name="Path 6" d="M221.393,79.57a2.363,2.363,0,0,1,2.365,2.361c0,5.026-3.051,8.049-6.547,10.435l-.036.053c-1.061-.724-2.162-1.389-3.23-2.035q-.636-.383-1.225-.748c3.954-2.454,6.308-4.391,6.308-7.706A2.363,2.363,0,0,1,221.393,79.57Z" transform="translate(-181.309 -66.24)" fill="#75967a"/>
  <path id="Path_7" data-name="Path 7" d="M222.944,244.4l.021.043a25.251,25.251,0,0,1-4.434,1.715,6.278,6.278,0,0,0-.79-1.3,18.937,18.937,0,0,0-5.011-3.982q.588-.364,1.223-.748c1.061-.641,2.154-1.3,3.209-2.022l0,0A15.087,15.087,0,0,1,222.944,244.4Z" transform="translate(-181.317 -191.003)" fill="#75967a"/>
  <path id="Path_8" data-name="Path 8" d="M130.629,89.072a1.278,1.278,0,0,1-.96-2.122c.3-.346.623-.687.948-1.014a1.278,1.278,0,1,1,1.811,1.8c-.288.289-.57.59-.838.9A1.275,1.275,0,0,1,130.629,89.072Z" transform="translate(-115.703 -70.954)" fill="#f4f8fc"/>
  <path id="Path_9" data-name="Path 9" d="M112.75,131.71a1.273,1.273,0,0,1-.906-.376,21.751,21.751,0,0,1-3.282-26.49,1.278,1.278,0,0,1,2.2,1.308,19.2,19.2,0,0,0,2.9,23.378,1.278,1.278,0,0,1-.906,2.18Z" transform="translate(-96.93 -85.638)" fill="#f4f8fc"/>
  <g id="Group_1" data-name="Group 1" transform="translate(24.44 31.744)">
    <path id="Path_10" data-name="Path 10" d="M180,381h13.635v2.557H180Z" transform="translate(-180 -335.194)" fill="#4ca987"/>
    <path id="Path_11" data-name="Path 11" d="M180,184h13.848v2.557H180Z" transform="translate(-180 -180.165)" fill="#4ca987"/>
    <path id="Path_12" data-name="Path 12" d="M184,362h12.57v2.557H184Z" transform="translate(-183.148 -320.242)" fill="#4ca987"/>
    <path id="Path_13" data-name="Path 13" d="M182,166h13v2.557H182Z" transform="translate(-181.574 -166)" fill="#4ca987"/>
    <path id="Path_14" data-name="Path 14" d="M185,400h11.931v2.557H185Z" transform="translate(-183.935 -350.146)" fill="#4ca987"/>
    <path id="Path_15" data-name="Path 15" d="M185,203h11.931v2.557H185Z" transform="translate(-183.935 -195.117)" fill="#4ca987"/>
    <path id="Path_16" data-name="Path 16" d="M185,301h12.144v2.557H185Z" transform="translate(-183.935 -272.238)" fill="#4ca987"/>
  </g>
  <path id="Path_17" data-name="Path 17" d="M167.407,154.551a21.726,21.726,0,0,0,4.489,3.4l.034.055c-.383.236-.784.481-1.2.731-1.061.641-2.156,1.3-3.211,2.02v0c-3.517-2.393-6.6-5.42-6.6-10.471s3.085-8.081,6.6-10.474c1.055.718,2.15,1.378,3.211,2.02.411.249.81.49,1.191.729l-.04.064a18.232,18.232,0,0,0-5.007,4.027,5.8,5.8,0,0,0-1.227,3.635c0,.075,0,.147,0,.219a6.007,6.007,0,0,0,1.753,4.048Z" transform="translate(-140.545 -113.646)" fill="#75967a"/>
  <path id="Path_18" data-name="Path 18" d="M176.411,92.4l-4.455-2.782c-3.952-2.452-6.306-4.393-6.306-7.706a2.365,2.365,0,1,0-4.73,0c0,5.054,3.085,8.081,6.6,10.474l4.4,2.748A18.773,18.773,0,0,1,177,99.181a5.807,5.807,0,0,1,1.263,3.682c0,.075,0,.147-.006.219a6,6,0,0,1-1.758,4.056,22.225,22.225,0,0,1-4.57,3.447l-4.408,2.75c-2.7,1.832-5.139,4.039-6.134,7.246a25.329,25.329,0,0,0,4.561,1.317,6.044,6.044,0,0,1,.961-1.773,18.684,18.684,0,0,1,5.047-4.025l4.431-2.77c3.52-2.39,6.6-5.418,6.6-10.469S179.92,94.792,176.411,92.4Z" transform="translate(-140.545 -66.224)" fill="#9ac5a1"/>
  <path id="Path_19" data-name="Path 19" d="M167.478,351.2a22.36,22.36,0,0,0,4.478,3.36c-.392.245-.8.492-1.223.748-1.063.641-2.158,1.3-3.215,2.024l-.006-.011c-3.513-2.393-6.592-5.42-6.592-10.467,0-5.024,3.051-8.047,6.545-10.435l.036-.053c1.061.724,2.162,1.389,3.232,2.035.424.256.831.5,1.223.748a19.472,19.472,0,0,0-4.934,3.882,5.859,5.859,0,0,0-1.372,3.824c0,.1,0,.2.006.3A6.057,6.057,0,0,0,167.478,351.2Z" transform="translate(-140.545 -268.329)" fill="#68826b"/>
  <path id="Path_20" data-name="Path 20" d="M176.39,303.241l-4.434-2.77a21.545,21.545,0,0,1-4.61-3.5,7.1,7.1,0,0,1-1.025-1.432,30.129,30.129,0,0,1-5.3-1.285l-.009.026c.548,4.157,3.343,6.807,6.485,8.948l4.455,2.782a19.2,19.2,0,0,1,4.981,3.939,5.837,5.837,0,0,1,1.327,3.767c0,.1,0,.2-.009.3a6.047,6.047,0,0,1-1.822,4.046,22.44,22.44,0,0,1-4.478,3.36l-4.438,2.772c-3.515,2.393-6.6,5.42-6.6,10.469a2.365,2.365,0,1,0,4.73,0c0-3.315,2.354-5.254,6.311-7.708l4.429-2.768c3.52-2.39,6.6-5.418,6.6-10.471S179.909,305.631,176.39,303.241Z" transform="translate(-140.545 -235.182)" fill="#8db291"/>
  <path id="Path_21" data-name="Path 21" d="M217.333,293.37a6.677,6.677,0,0,0,1.266-1.943,29.747,29.747,0,0,0,5.149-1.747c-.2,4.747-3.194,7.651-6.592,9.962l0,0c-1.055-.72-2.148-1.381-3.209-2.022-.424-.256-.831-.5-1.225-.748A21.509,21.509,0,0,0,217.333,293.37Z" transform="translate(-181.309 -231.586)" fill="#68826b"/>
  <path id="Path_22" data-name="Path 22" d="M223.774,445.226a2.365,2.365,0,1,1-4.73,0c0-3.311-2.352-5.25-6.3-7.7l0-.006c.392-.243.8-.49,1.221-.746,1.061-.641,2.154-1.3,3.209-2.022l0,0c3.518,2.393,6.6,5.422,6.6,10.474Z" transform="translate(-181.325 -345.749)" fill="#68826b"/>
</svg>
